<svg width="60" height="60" viewBox="0 0 60 60" fill="none" xmlns="http://www.w3.org/2000/svg">
<g clip-path="url(#clip0_1_3760)">
<g clip-path="url(#clip1_1_3760)">
<path fill-rule="evenodd" clip-rule="evenodd" d="M26.5995 48.2902C16.1092 46.5143 8.10767 37.3734 8.10767 26.3792C8.10767 14.1143 18.0652 4.15686 30.33 4.15686C42.5949 4.15686 52.5524 14.1143 52.5524 26.3792C52.5524 37.3734 44.5509 46.5143 34.0606 48.2902L30.33 56.6831L26.5995 48.2902ZM30.33 18.2989C34.7898 18.2989 38.4115 21.9195 38.4115 26.3792C38.4115 30.8389 34.7898 34.4608 30.33 34.4608C25.8703 34.4608 22.2485 30.8389 22.2485 26.3792C22.2485 21.9195 25.8703 18.2989 30.33 18.2989Z" fill="#367441" fill-opacity="0.17"/>
<path fill-rule="evenodd" clip-rule="evenodd" d="M35.8825 22.2517C36.6896 23.3733 37.1658 24.7499 37.1658 26.2368C37.1658 30.0081 34.1032 33.0709 30.3319 33.0709C26.5605 33.0709 23.4979 30.0081 23.4979 26.2368C23.4979 22.4656 26.5605 19.4028 30.3319 19.4028C31.4388 19.4028 32.4847 19.6667 33.4094 20.1349C34.0253 20.4465 34.7794 20.1995 35.091 19.5829C35.4026 18.967 35.1557 18.2136 34.5391 17.9019C33.2749 17.2618 31.8453 16.9009 30.3319 16.9009C25.1788 16.9009 20.9958 21.0838 20.9958 26.2368C20.9958 31.3899 25.1788 35.5728 30.3319 35.5728C35.485 35.5728 39.6679 31.3899 39.6679 26.2368C39.6679 24.2046 39.0173 22.323 37.9133 20.7898C37.5098 20.2289 36.727 20.1018 36.167 20.5053C35.6062 20.9088 35.479 21.6909 35.8825 22.2517Z" fill="url(#paint0_linear_1_3760)"/>
<path fill-rule="evenodd" clip-rule="evenodd" d="M12.3678 37.2514C10.3 34.0022 9.10248 30.1472 9.10248 26.0156C9.10248 14.4466 18.4966 5.05243 30.0656 5.05243C41.6346 5.05243 51.0288 14.4466 51.0288 26.0156C51.0288 36.3871 43.4824 45.0098 33.5854 46.6839C33.1735 46.7545 32.8221 47.0252 32.6525 47.4088L30.0656 53.2287L27.4788 47.4088C27.3092 47.0252 26.9578 46.7545 26.5458 46.6839C23.1997 46.1184 20.1243 44.7574 17.5173 42.8047C16.966 42.3907 16.1804 42.5038 15.7665 43.055C15.3545 43.6084 15.4656 44.3919 16.0189 44.8059C18.7632 46.8616 21.974 48.3317 25.4635 49.0263C25.4615 49.0263 28.9227 56.8131 28.9227 56.8131C29.1246 57.2654 29.5709 57.5562 30.0656 57.5562C30.5604 57.5562 31.0067 57.2654 31.2086 56.8131L34.6698 49.0263C45.4169 46.8858 53.5287 37.3907 53.5287 26.0156C53.5287 13.0653 43.0159 2.55249 30.0656 2.55249C17.1154 2.55249 6.60254 13.0653 6.60254 26.0156C6.60254 30.642 7.94537 34.9574 10.2596 38.5943C10.6311 39.1759 11.4046 39.3475 11.9862 38.978C12.5677 38.6064 12.7394 37.833 12.3678 37.2514Z" fill="url(#paint1_linear_1_3760)"/>
<path d="M13.7587 42.3468C14.4494 42.3468 15.0093 41.7869 15.0093 41.0962C15.0093 40.4055 14.4494 39.8456 13.7587 39.8456C13.068 39.8456 12.5081 40.4055 12.5081 41.0962C12.5081 41.7869 13.068 42.3468 13.7587 42.3468Z" fill="url(#paint2_linear_1_3760)"/>
</g>
</g>
<defs>
<linearGradient id="paint0_linear_1_3760" x1="20.9958" y1="26.2368" x2="31.8534" y2="23.9147" gradientUnits="userSpaceOnUse">
<stop stop-color="#5F936C"/>
<stop offset="1" stop-color="#367441"/>
</linearGradient>
<linearGradient id="paint1_linear_1_3760" x1="6.60254" y1="30.0543" x2="34.2182" y2="25.0155" gradientUnits="userSpaceOnUse">
<stop stop-color="#5F936C"/>
<stop offset="1" stop-color="#367441"/>
</linearGradient>
<linearGradient id="paint2_linear_1_3760" x1="12.5081" y1="41.0962" x2="13.9625" y2="40.7851" gradientUnits="userSpaceOnUse">
<stop stop-color="#5F936C"/>
<stop offset="1" stop-color="#367441"/>
</linearGradient>
<clipPath id="clip0_1_3760">
<rect width="60" height="60" fill="white"/>
</clipPath>
<clipPath id="clip1_1_3760">
<rect width="60" height="60" fill="white"/>
</clipPath>
</defs>
</svg>
