<?xml version="1.0" encoding="UTF-8"?>
<svg version="1.1" xmlns="http://www.w3.org/2000/svg" width="150" height="138">
<path d="M0 0 C49.5 0 99 0 150 0 C150 45.54 150 91.08 150 138 C125.25 138 100.5 138 75 138 C75 137.34 75 136.68 75 136 C98.76 136 122.52 136 147 136 C147 92.11 147 48.22 147 3 C99.15 3 51.3 3 2 3 C2 24.78 2 46.56 2 69 C1.34 68.67 0.68 68.34 0 68 C0 45.56 0 23.12 0 0 Z " fill="#D2A57C" transform="translate(0,0)"/>
<path d="M0 0 C1.81274414 0.01353516 1.81274414 0.01353516 3.66210938 0.02734375 C6.62899213 0.05079737 9.59577222 0.08666468 12.5625 0.125 C12.5625 8.045 12.5625 15.965 12.5625 24.125 C11.5725 24.125 10.5825 24.125 9.5625 24.125 C9.5625 17.195 9.5625 10.265 9.5625 3.125 C5.93515383 3.15830618 2.31365231 3.22584562 -1.3125 3.3125 C-2.83230469 3.32120117 -2.83230469 3.32120117 -4.3828125 3.33007812 C-11.93292085 3.54786971 -19.47624195 4.94348888 -24.90405273 10.6730957 C-28.55906679 15.93211459 -28.98768003 20.94297716 -28.4375 27.125 C-27.50275964 31.32029137 -26.21707524 34.3008776 -23.25 37.4375 C-17.71076852 40.76103889 -12.7712816 42.13080146 -6.4375 42.9375 C0.26211394 43.96951124 4.83610492 46.44476408 8.90234375 51.93359375 C12.62033279 58.08613789 13.29695407 64.07010314 12.5625 71.125 C10.42894876 78.85455133 6.66015168 82.60521475 -0.06298828 86.73950195 C-4.383867 88.51355685 -7.93707237 88.50493828 -12.5546875 88.41796875 C-13.41184357 88.41372391 -14.26899963 88.40947906 -15.15213013 88.40510559 C-17.87258164 88.38839886 -20.59227482 88.35076219 -23.3125 88.3125 C-25.16405175 88.29744278 -27.01561519 88.2837562 -28.8671875 88.27148438 C-33.39114765 88.24108142 -37.91348144 88.18234671 -42.4375 88.125 C-42.4375 81.195 -42.4375 74.265 -42.4375 67.125 C-41.4475 67.125 -40.4575 67.125 -39.4375 67.125 C-39.4375 73.395 -39.4375 79.665 -39.4375 86.125 C-35.18588115 86.07362092 -30.93771969 86.01024568 -26.68725586 85.91748047 C-25.24531528 85.88947537 -23.80322702 85.86816032 -22.36108398 85.85400391 C-12.46488832 85.75109719 -5.12612292 84.58764004 3.4375 79.375 C7.21151262 75.37898664 8.3602556 71.01261441 8.9375 65.625 C8.3268075 59.92520333 7.11839392 55.13274209 2.6875 51.25 C-1.8838529 48.14148003 -5.79852353 46.95018964 -11.25 46.25 C-18.05490781 45.16322111 -23.59785539 43.47027316 -28.3125 38.25 C-32.94934246 31.43111403 -33.51179026 24.16332977 -32.4375 16.125 C-30.0128982 9.86283879 -26.55920342 5.12338535 -20.4375 2.125 C-13.71570934 -0.43480521 -7.11890215 -0.10097734 0 0 Z " fill="#1F5433" transform="translate(42.4375,49.875)"/>
<path d="M0 0 C4.70206329 4.08621783 6.71254954 8.79449261 7.67578125 14.87890625 C8.04767052 22.1121526 6.67031016 28.12804703 2.20703125 33.91796875 C-3.9324666 39.28183609 -9.02458565 41.05366867 -17.08984375 41.015625 C-18.29511719 41.01240234 -19.50039062 41.00917969 -20.7421875 41.00585938 C-21.99644531 40.99748047 -23.25070313 40.98910156 -24.54296875 40.98046875 C-25.81269531 40.97595703 -27.08242187 40.97144531 -28.390625 40.96679688 C-31.52478711 40.95501431 -34.65885416 40.93856291 -37.79296875 40.91796875 C-37.91008886 36.43902554 -37.98052955 31.96048161 -38.04296875 27.48046875 C-38.07648437 26.22041016 -38.11 24.96035156 -38.14453125 23.66210938 C-38.2303261 15.44725202 -37.78689304 8.46055213 -32.17749023 2.08056641 C-22.90124675 -6.99254766 -10.48444978 -6.95110765 0 0 Z M-27.86328125 2.72265625 C-32.63701797 8.01571161 -35.06593505 12.39562014 -34.98828125 19.65625 C-34.98183594 20.72294922 -34.97539063 21.78964844 -34.96875 22.88867188 C-34.95199219 23.99146484 -34.93523437 25.09425781 -34.91796875 26.23046875 C-34.90894531 27.35259766 -34.89992188 28.47472656 -34.890625 29.63085938 C-34.86711361 32.39344784 -34.8342503 35.15559807 -34.79296875 37.91796875 C-30.95989706 38.0351605 -27.12729267 38.10554952 -23.29296875 38.16796875 C-22.2153125 38.20148438 -21.13765625 38.235 -20.02734375 38.26953125 C-12.69972661 38.35889243 -6.7522605 37.69758231 -1.27587891 32.46972656 C3.51443228 26.99557736 4.67178645 22.87524357 4.51953125 15.73828125 C3.89514256 10.10317332 1.54358152 5.8694387 -2.60546875 2.04296875 C-10.52069117 -3.23384619 -20.46439739 -3.72693685 -27.86328125 2.72265625 Z " fill="#9D7453" transform="translate(101.79296875,55.08203125)"/>
<path d="M0 0 C22.44 0 44.88 0 68 0 C68 0.99 68 1.98 68 3 C46.22 3 24.44 3 2 3 C2 24.78 2 46.56 2 69 C1.34 68.67 0.68 68.34 0 68 C0 45.56 0 23.12 0 0 Z " fill="#1D432C" transform="translate(0,0)"/>
<path d="M0 0 C0.99 0 1.98 0 3 0 C3 10.89 3 21.78 3 33 C2.01 33 1.02 33 0 33 C0 22.11 0 11.22 0 0 Z " fill="#D3AB86" transform="translate(64,105)"/>
<path d="M0 0 C0.99 0 1.98 0 3 0 C3 3.96 3 7.92 3 12 C2.01 12 1.02 12 0 12 C0 8.04 0 4.08 0 0 Z " fill="#9B704B" transform="translate(64,126)"/>
<path d="M0 0 C0.99 0 1.98 0 3 0 C3 2.97 3 5.94 3 9 C2.01 9 1.02 9 0 9 C0 6.03 0 3.06 0 0 Z " fill="#7B5334" transform="translate(64,105)"/>
</svg>
